<svg width="1660" height="399" viewBox="0 0 1660 399" fill="none" xmlns="http://www.w3.org/2000/svg">
<path d="M8 210.5C8 193.167 11.5833 177.75 18.75 164.25C26.0833 150.583 36.4167 140 49.75 132.5C63.0833 124.833 78.4167 121 95.75 121C117.75 121 136.25 126.917 151.25 138.75C166.25 150.417 175.917 166.333 180.25 186.5H127.5C124.333 179.833 119.917 174.75 114.25 171.25C108.75 167.75 102.333 166 95 166C83.6667 166 74.5833 170.083 67.75 178.25C61.0833 186.25 57.75 197 57.75 210.5C57.75 224.167 61.0833 235.083 67.75 243.25C74.5833 251.25 83.6667 255.25 95 255.25C102.333 255.25 108.75 253.5 114.25 250C119.917 246.5 124.333 241.417 127.5 234.75H180.25C175.917 254.917 166.25 270.917 151.25 282.75C136.25 294.417 117.75 300.25 95.75 300.25C78.4167 300.25 63.0833 296.5 49.75 289C36.4167 281.333 26.0833 270.75 18.75 257.25C11.5833 243.583 8 228 8 210.5ZM268.703 300.75C254.703 300.75 242.12 297.833 230.953 292C219.953 286.167 211.286 277.833 204.953 267C198.62 256.167 195.453 243.417 195.453 228.75C195.453 214.25 198.62 201.583 204.953 190.75C211.453 179.917 220.203 171.583 231.203 165.75C242.37 159.917 254.953 157 268.953 157C282.953 157 295.453 159.917 306.453 165.75C317.62 171.583 326.37 179.917 332.703 190.75C339.203 201.583 342.453 214.25 342.453 228.75C342.453 243.25 339.203 256 332.703 267C326.37 277.833 317.62 286.167 306.453 292C295.286 297.833 282.703 300.75 268.703 300.75ZM268.703 258.25C275.536 258.25 281.203 255.75 285.703 250.75C290.37 245.583 292.703 238.25 292.703 228.75C292.703 219.25 290.37 212 285.703 207C281.203 202 275.62 199.5 268.953 199.5C262.286 199.5 256.703 202 252.203 207C247.703 212 245.453 219.25 245.453 228.75C245.453 238.417 247.62 245.75 251.953 250.75C256.286 255.75 261.87 258.25 268.703 258.25ZM354.389 228.75C354.389 214.25 356.972 201.583 362.139 190.75C367.472 179.917 374.722 171.583 383.889 165.75C393.055 159.917 403.222 157 414.389 157C423.389 157 431.389 158.917 438.389 162.75C445.555 166.417 451.139 171.5 455.139 178V114H504.389V299H455.139V279.5C451.305 286 445.889 291.167 438.889 295C431.889 298.833 423.639 300.75 414.139 300.75C402.972 300.75 392.805 297.833 383.639 292C374.639 286.167 367.472 277.833 362.139 267C356.972 256 354.389 243.25 354.389 228.75ZM455.389 228.75C455.389 219.75 452.889 212.667 447.889 207.5C443.055 202.333 437.055 199.75 429.889 199.75C422.555 199.75 416.472 202.333 411.639 207.5C406.805 212.5 404.389 219.583 404.389 228.75C404.389 237.75 406.805 244.917 411.639 250.25C416.472 255.417 422.555 258 429.889 258C437.055 258 443.055 255.417 447.889 250.25C452.889 245.083 455.389 237.917 455.389 228.75ZM666.311 227.25C666.311 231.083 666.061 234.917 665.561 238.75H572.811C573.311 246.417 575.394 252.167 579.061 256C582.894 259.667 587.727 261.5 593.561 261.5C601.727 261.5 607.561 257.833 611.061 250.5H663.311C661.144 260.167 656.894 268.833 650.561 276.5C644.394 284 636.561 289.917 627.061 294.25C617.561 298.583 607.061 300.75 595.561 300.75C581.727 300.75 569.394 297.833 558.561 292C547.894 286.167 539.477 277.833 533.311 267C527.311 256.167 524.311 243.417 524.311 228.75C524.311 214.083 527.311 201.417 533.311 190.75C539.311 179.917 547.644 171.583 558.311 165.75C569.144 159.917 581.561 157 595.561 157C609.394 157 621.644 159.833 632.311 165.5C642.977 171.167 651.311 179.333 657.311 190C663.311 200.5 666.311 212.917 666.311 227.25ZM616.311 215C616.311 209 614.311 204.333 610.311 201C606.311 197.5 601.311 195.75 595.311 195.75C589.311 195.75 584.394 197.417 580.561 200.75C576.727 203.917 574.227 208.667 573.061 215H616.311Z" fill="url(#paint0_linear_1_2)"/>
<path d="M892.113 122.75V299H843.113V201.75L809.863 299H768.863L735.363 201V299H686.363V122.75H745.613L789.863 237.25L833.113 122.75H892.113ZM912.006 228.75C912.006 214.25 914.589 201.583 919.756 190.75C925.089 179.917 932.256 171.583 941.256 165.75C950.423 159.917 960.589 157 971.756 157C981.423 157 989.756 158.917 996.756 162.75C1003.76 166.583 1009.17 171.75 1013.01 178.25V158.75H1062.01V299H1013.01V279.5C1009.17 286 1003.67 291.167 996.506 295C989.506 298.833 981.256 300.75 971.756 300.75C960.589 300.75 950.423 297.833 941.256 292C932.256 286.167 925.089 277.833 919.756 267C914.589 256 912.006 243.25 912.006 228.75ZM1013.01 228.75C1013.01 219.75 1010.51 212.667 1005.51 207.5C1000.67 202.333 994.673 199.75 987.506 199.75C980.173 199.75 974.089 202.333 969.256 207.5C964.423 212.5 962.006 219.583 962.006 228.75C962.006 237.75 964.423 244.917 969.256 250.25C974.089 255.417 980.173 258 987.506 258C994.673 258 1000.67 255.417 1005.51 250.25C1010.51 245.083 1013.01 237.917 1013.01 228.75ZM1172.68 257.25V299H1151.43C1115.59 299 1097.68 281.25 1097.68 245.75V199.5H1080.43V158.75H1097.68V124.75H1146.93V158.75H1172.43V199.5H1146.93V246.5C1146.93 250.333 1147.76 253.083 1149.43 254.75C1151.26 256.417 1154.26 257.25 1158.43 257.25H1172.68ZM1329.15 227.25C1329.15 231.083 1328.9 234.917 1328.4 238.75H1235.65C1236.15 246.417 1238.24 252.167 1241.9 256C1245.74 259.667 1250.57 261.5 1256.4 261.5C1264.57 261.5 1270.4 257.833 1273.9 250.5H1326.15C1323.99 260.167 1319.74 268.833 1313.4 276.5C1307.24 284 1299.4 289.917 1289.9 294.25C1280.4 298.583 1269.9 300.75 1258.4 300.75C1244.57 300.75 1232.24 297.833 1221.4 292C1210.74 286.167 1202.32 277.833 1196.15 267C1190.15 256.167 1187.15 243.417 1187.15 228.75C1187.15 214.083 1190.15 201.417 1196.15 190.75C1202.15 179.917 1210.49 171.583 1221.15 165.75C1231.99 159.917 1244.4 157 1258.4 157C1272.24 157 1284.49 159.833 1295.15 165.5C1305.82 171.167 1314.15 179.333 1320.15 190C1326.15 200.5 1329.15 212.917 1329.15 227.25ZM1279.15 215C1279.15 209 1277.15 204.333 1273.15 201C1269.15 197.5 1264.15 195.75 1258.15 195.75C1252.15 195.75 1247.24 197.417 1243.4 200.75C1239.57 203.917 1237.07 208.667 1235.9 215H1279.15ZM1372.96 301C1364.29 301 1357.29 298.667 1351.96 294C1346.79 289.167 1344.21 283.083 1344.21 275.75C1344.21 268.417 1346.79 262.333 1351.96 257.5C1357.29 252.667 1364.29 250.25 1372.96 250.25C1381.46 250.25 1388.29 252.667 1393.46 257.5C1398.79 262.333 1401.46 268.417 1401.46 275.75C1401.46 282.917 1398.79 288.917 1393.46 293.75C1388.29 298.583 1381.46 301 1372.96 301ZM1416.4 228.75C1416.4 214.25 1418.98 201.583 1424.15 190.75C1429.48 179.917 1436.65 171.583 1445.65 165.75C1454.82 159.917 1464.98 157 1476.15 157C1485.82 157 1494.15 158.917 1501.15 162.75C1508.15 166.583 1513.57 171.75 1517.4 178.25V158.75H1566.4V299H1517.4V279.5C1513.57 286 1508.07 291.167 1500.9 295C1493.9 298.833 1485.65 300.75 1476.15 300.75C1464.98 300.75 1454.82 297.833 1445.65 292C1436.65 286.167 1429.48 277.833 1424.15 267C1418.98 256 1416.4 243.25 1416.4 228.75ZM1517.4 228.75C1517.4 219.75 1514.9 212.667 1509.9 207.5C1505.07 202.333 1499.07 199.75 1491.9 199.75C1484.57 199.75 1478.48 202.333 1473.65 207.5C1468.82 212.5 1466.4 219.583 1466.4 228.75C1466.4 237.75 1468.82 244.917 1473.65 250.25C1478.48 255.417 1484.57 258 1491.9 258C1499.07 258 1505.07 255.417 1509.9 250.25C1514.9 245.083 1517.4 237.917 1517.4 228.75ZM1619.07 145.75C1610.41 145.75 1603.41 143.417 1598.07 138.75C1592.91 133.917 1590.32 127.917 1590.32 120.75C1590.32 113.417 1592.91 107.333 1598.07 102.5C1603.41 97.6667 1610.41 95.25 1619.07 95.25C1627.57 95.25 1634.41 97.6667 1639.57 102.5C1644.91 107.333 1647.57 113.417 1647.57 120.75C1647.57 127.917 1644.91 133.917 1639.57 138.75C1634.41 143.417 1627.57 145.75 1619.07 145.75ZM1643.32 158.75V299H1594.32V158.75H1643.32Z" fill="white"/>
<path d="M1360.96 75.448C1368.38 75.448 1375.04 77.176 1380.93 80.632C1386.82 83.96 1391.42 88.632 1394.75 94.648C1398.08 100.536 1399.74 107.192 1399.74 114.616C1399.74 122.04 1398.08 128.76 1394.75 134.776C1391.42 140.792 1386.82 145.528 1380.93 148.984C1375.04 152.312 1368.38 153.976 1360.96 153.976C1353.41 153.976 1346.69 152.312 1340.8 148.984C1334.91 145.528 1330.3 140.792 1326.98 134.776C1323.65 128.76 1321.98 122.04 1321.98 114.616C1321.98 107.192 1323.65 100.536 1326.98 94.648C1330.3 88.632 1334.91 83.96 1340.8 80.632C1346.69 77.176 1353.41 75.448 1360.96 75.448ZM1360.96 146.296C1370.18 146.296 1377.6 143.352 1383.23 137.464C1388.99 131.576 1391.87 123.96 1391.87 114.616C1391.87 105.272 1388.99 97.656 1383.23 91.768C1377.6 85.88 1370.18 82.936 1360.96 82.936C1351.62 82.936 1344.13 85.88 1338.5 91.768C1332.99 97.656 1330.24 105.272 1330.24 114.616C1330.24 123.96 1332.99 131.576 1338.5 137.464C1344.13 143.352 1351.62 146.296 1360.96 146.296ZM1378.24 106.552C1378.24 109.624 1377.41 112.248 1375.74 114.424C1374.21 116.472 1372.03 117.944 1369.22 118.84L1379.97 134.776L1367.87 134.968L1358.66 119.608H1355.39V134.968H1345.41V93.688H1363.84C1368.19 93.688 1371.65 94.84 1374.21 97.144C1376.9 99.448 1378.24 102.584 1378.24 106.552ZM1355.39 111.352H1363.26C1364.67 111.352 1365.82 110.968 1366.72 110.2C1367.74 109.432 1368.26 108.344 1368.26 106.936C1368.26 105.528 1367.74 104.504 1366.72 103.864C1365.82 103.096 1364.67 102.712 1363.26 102.712H1355.39V111.352Z" fill="white"/>
<defs>
<linearGradient id="paint0_linear_1_2" x1="831.551" y1="119" x2="831.551" y2="299" gradientUnits="userSpaceOnUse">
<stop offset="0.0987921" stop-color="#2FCACE"/>
<stop offset="0.848377" stop-color="#48AEF3"/>
</linearGradient>
</defs>
</svg>
