<svg width="1788" height="527" viewBox="0 0 1788 527" fill="none" xmlns="http://www.w3.org/2000/svg">
<path d="M72 274.5C72 257.167 75.5833 241.75 82.75 228.25C90.0833 214.583 100.417 204 113.75 196.5C127.083 188.833 142.417 185 159.75 185C181.75 185 200.25 190.917 215.25 202.75C230.25 214.417 239.917 230.333 244.25 250.5H191.5C188.333 243.833 183.917 238.75 178.25 235.25C172.75 231.75 166.333 230 159 230C147.667 230 138.583 234.083 131.75 242.25C125.083 250.25 121.75 261 121.75 274.5C121.75 288.167 125.083 299.083 131.75 307.25C138.583 315.25 147.667 319.25 159 319.25C166.333 319.25 172.75 317.5 178.25 314C183.917 310.5 188.333 305.417 191.5 298.75H244.25C239.917 318.917 230.25 334.917 215.25 346.75C200.25 358.417 181.75 364.25 159.75 364.25C142.417 364.25 127.083 360.5 113.75 353C100.417 345.333 90.0833 334.75 82.75 321.25C75.5833 307.583 72 292 72 274.5ZM332.703 364.75C318.703 364.75 306.12 361.833 294.953 356C283.953 350.167 275.286 341.833 268.953 331C262.62 320.167 259.453 307.417 259.453 292.75C259.453 278.25 262.62 265.583 268.953 254.75C275.453 243.917 284.203 235.583 295.203 229.75C306.37 223.917 318.953 221 332.953 221C346.953 221 359.453 223.917 370.453 229.75C381.62 235.583 390.37 243.917 396.703 254.75C403.203 265.583 406.453 278.25 406.453 292.75C406.453 307.25 403.203 320 396.703 331C390.37 341.833 381.62 350.167 370.453 356C359.286 361.833 346.703 364.75 332.703 364.75ZM332.703 322.25C339.536 322.25 345.203 319.75 349.703 314.75C354.37 309.583 356.703 302.25 356.703 292.75C356.703 283.25 354.37 276 349.703 271C345.203 266 339.62 263.5 332.953 263.5C326.286 263.5 320.703 266 316.203 271C311.703 276 309.453 283.25 309.453 292.75C309.453 302.417 311.62 309.75 315.953 314.75C320.286 319.75 325.87 322.25 332.703 322.25ZM418.389 292.75C418.389 278.25 420.972 265.583 426.139 254.75C431.472 243.917 438.722 235.583 447.889 229.75C457.055 223.917 467.222 221 478.389 221C487.389 221 495.389 222.917 502.389 226.75C509.555 230.417 515.139 235.5 519.139 242V178H568.389V363H519.139V343.5C515.305 350 509.889 355.167 502.889 359C495.889 362.833 487.639 364.75 478.139 364.75C466.972 364.75 456.805 361.833 447.639 356C438.639 350.167 431.472 341.833 426.139 331C420.972 320 418.389 307.25 418.389 292.75ZM519.389 292.75C519.389 283.75 516.889 276.667 511.889 271.5C507.055 266.333 501.055 263.75 493.889 263.75C486.555 263.75 480.472 266.333 475.639 271.5C470.805 276.5 468.389 283.583 468.389 292.75C468.389 301.75 470.805 308.917 475.639 314.25C480.472 319.417 486.555 322 493.889 322C501.055 322 507.055 319.417 511.889 314.25C516.889 309.083 519.389 301.917 519.389 292.75ZM730.311 291.25C730.311 295.083 730.061 298.917 729.561 302.75H636.811C637.311 310.417 639.394 316.167 643.061 320C646.894 323.667 651.727 325.5 657.561 325.5C665.727 325.5 671.561 321.833 675.061 314.5H727.311C725.144 324.167 720.894 332.833 714.561 340.5C708.394 348 700.561 353.917 691.061 358.25C681.561 362.583 671.061 364.75 659.561 364.75C645.727 364.75 633.394 361.833 622.561 356C611.894 350.167 603.477 341.833 597.311 331C591.311 320.167 588.311 307.417 588.311 292.75C588.311 278.083 591.311 265.417 597.311 254.75C603.311 243.917 611.644 235.583 622.311 229.75C633.144 223.917 645.561 221 659.561 221C673.394 221 685.644 223.833 696.311 229.5C706.977 235.167 715.311 243.333 721.311 254C727.311 264.5 730.311 276.917 730.311 291.25ZM680.311 279C680.311 273 678.311 268.333 674.311 265C670.311 261.5 665.311 259.75 659.311 259.75C653.311 259.75 648.394 261.417 644.561 264.75C640.727 267.917 638.227 272.667 637.061 279H680.311Z" fill="url(#paint0_linear_8_24)"/>
<path d="M956.113 186.75V363H907.113V265.75L873.863 363H832.863L799.363 265V363H750.363V186.75H809.613L853.863 301.25L897.113 186.75H956.113ZM976.006 292.75C976.006 278.25 978.589 265.583 983.756 254.75C989.089 243.917 996.256 235.583 1005.26 229.75C1014.42 223.917 1024.59 221 1035.76 221C1045.42 221 1053.76 222.917 1060.76 226.75C1067.76 230.583 1073.17 235.75 1077.01 242.25V222.75H1126.01V363H1077.01V343.5C1073.17 350 1067.67 355.167 1060.51 359C1053.51 362.833 1045.26 364.75 1035.76 364.75C1024.59 364.75 1014.42 361.833 1005.26 356C996.256 350.167 989.089 341.833 983.756 331C978.589 320 976.006 307.25 976.006 292.75ZM1077.01 292.75C1077.01 283.75 1074.51 276.667 1069.51 271.5C1064.67 266.333 1058.67 263.75 1051.51 263.75C1044.17 263.75 1038.09 266.333 1033.26 271.5C1028.42 276.5 1026.01 283.583 1026.01 292.75C1026.01 301.75 1028.42 308.917 1033.26 314.25C1038.09 319.417 1044.17 322 1051.51 322C1058.67 322 1064.67 319.417 1069.51 314.25C1074.51 309.083 1077.01 301.917 1077.01 292.75ZM1236.68 321.25V363H1215.43C1179.59 363 1161.68 345.25 1161.68 309.75V263.5H1144.43V222.75H1161.68V188.75H1210.93V222.75H1236.43V263.5H1210.93V310.5C1210.93 314.333 1211.76 317.083 1213.43 318.75C1215.26 320.417 1218.26 321.25 1222.43 321.25H1236.68ZM1393.15 291.25C1393.15 295.083 1392.9 298.917 1392.4 302.75H1299.65C1300.15 310.417 1302.24 316.167 1305.9 320C1309.74 323.667 1314.57 325.5 1320.4 325.5C1328.57 325.5 1334.4 321.833 1337.9 314.5H1390.15C1387.99 324.167 1383.74 332.833 1377.4 340.5C1371.24 348 1363.4 353.917 1353.9 358.25C1344.4 362.583 1333.9 364.75 1322.4 364.75C1308.57 364.75 1296.24 361.833 1285.4 356C1274.74 350.167 1266.32 341.833 1260.15 331C1254.15 320.167 1251.15 307.417 1251.15 292.75C1251.15 278.083 1254.15 265.417 1260.15 254.75C1266.15 243.917 1274.49 235.583 1285.15 229.75C1295.99 223.917 1308.4 221 1322.4 221C1336.24 221 1348.49 223.833 1359.15 229.5C1369.82 235.167 1378.15 243.333 1384.15 254C1390.15 264.5 1393.15 276.917 1393.15 291.25ZM1343.15 279C1343.15 273 1341.15 268.333 1337.15 265C1333.15 261.5 1328.15 259.75 1322.15 259.75C1316.15 259.75 1311.24 261.417 1307.4 264.75C1303.57 267.917 1301.07 272.667 1299.9 279H1343.15ZM1436.96 365C1428.29 365 1421.29 362.667 1415.96 358C1410.79 353.167 1408.21 347.083 1408.21 339.75C1408.21 332.417 1410.79 326.333 1415.96 321.5C1421.29 316.667 1428.29 314.25 1436.96 314.25C1445.46 314.25 1452.29 316.667 1457.46 321.5C1462.79 326.333 1465.46 332.417 1465.46 339.75C1465.46 346.917 1462.79 352.917 1457.46 357.75C1452.29 362.583 1445.46 365 1436.96 365ZM1480.4 292.75C1480.4 278.25 1482.98 265.583 1488.15 254.75C1493.48 243.917 1500.65 235.583 1509.65 229.75C1518.82 223.917 1528.98 221 1540.15 221C1549.82 221 1558.15 222.917 1565.15 226.75C1572.15 230.583 1577.57 235.75 1581.4 242.25V222.75H1630.4V363H1581.4V343.5C1577.57 350 1572.07 355.167 1564.9 359C1557.9 362.833 1549.65 364.75 1540.15 364.75C1528.98 364.75 1518.82 361.833 1509.65 356C1500.65 350.167 1493.48 341.833 1488.15 331C1482.98 320 1480.4 307.25 1480.4 292.75ZM1581.4 292.75C1581.4 283.75 1578.9 276.667 1573.9 271.5C1569.07 266.333 1563.07 263.75 1555.9 263.75C1548.57 263.75 1542.48 266.333 1537.65 271.5C1532.82 276.5 1530.4 283.583 1530.4 292.75C1530.4 301.75 1532.82 308.917 1537.65 314.25C1542.48 319.417 1548.57 322 1555.9 322C1563.07 322 1569.07 319.417 1573.9 314.25C1578.9 309.083 1581.4 301.917 1581.4 292.75ZM1683.07 209.75C1674.41 209.75 1667.41 207.417 1662.07 202.75C1656.91 197.917 1654.32 191.917 1654.32 184.75C1654.32 177.417 1656.91 171.333 1662.07 166.5C1667.41 161.667 1674.41 159.25 1683.07 159.25C1691.57 159.25 1698.41 161.667 1703.57 166.5C1708.91 171.333 1711.57 177.417 1711.57 184.75C1711.57 191.917 1708.91 197.917 1703.57 202.75C1698.41 207.417 1691.57 209.75 1683.07 209.75ZM1707.32 222.75V363H1658.32V222.75H1707.32Z" fill="#232325"/>
<path d="M1424.96 139.448C1432.38 139.448 1439.04 141.176 1444.93 144.632C1450.82 147.96 1455.42 152.632 1458.75 158.648C1462.08 164.536 1463.74 171.192 1463.74 178.616C1463.74 186.04 1462.08 192.76 1458.75 198.776C1455.42 204.792 1450.82 209.528 1444.93 212.984C1439.04 216.312 1432.38 217.976 1424.96 217.976C1417.41 217.976 1410.69 216.312 1404.8 212.984C1398.91 209.528 1394.3 204.792 1390.98 198.776C1387.65 192.76 1385.98 186.04 1385.98 178.616C1385.98 171.192 1387.65 164.536 1390.98 158.648C1394.3 152.632 1398.91 147.96 1404.8 144.632C1410.69 141.176 1417.41 139.448 1424.96 139.448ZM1424.96 210.296C1434.18 210.296 1441.6 207.352 1447.23 201.464C1452.99 195.576 1455.87 187.96 1455.87 178.616C1455.87 169.272 1452.99 161.656 1447.23 155.768C1441.6 149.88 1434.18 146.936 1424.96 146.936C1415.62 146.936 1408.13 149.88 1402.5 155.768C1396.99 161.656 1394.24 169.272 1394.24 178.616C1394.24 187.96 1396.99 195.576 1402.5 201.464C1408.13 207.352 1415.62 210.296 1424.96 210.296ZM1442.24 170.552C1442.24 173.624 1441.41 176.248 1439.74 178.424C1438.21 180.472 1436.03 181.944 1433.22 182.84L1443.97 198.776L1431.87 198.968L1422.66 183.608H1419.39V198.968H1409.41V157.688H1427.84C1432.19 157.688 1435.65 158.84 1438.21 161.144C1440.9 163.448 1442.24 166.584 1442.24 170.552ZM1419.39 175.352H1427.26C1428.67 175.352 1429.82 174.968 1430.72 174.2C1431.74 173.432 1432.26 172.344 1432.26 170.936C1432.26 169.528 1431.74 168.504 1430.72 167.864C1429.82 167.096 1428.67 166.712 1427.26 166.712H1419.39V175.352Z" fill="#232325"/>
<defs>
<linearGradient id="paint0_linear_8_24" x1="895.551" y1="183" x2="895.551" y2="363" gradientUnits="userSpaceOnUse">
<stop offset="0.0987921" stop-color="#2FCACE"/>
<stop offset="0.848377" stop-color="#48AEF3"/>
</linearGradient>
</defs>
</svg>
